<svg xmlns="http://www.w3.org/2000/svg" viewBox="0 0 1024 1024">
  <title>Airport Status r3 favicon</title>
  <rect width="1024" height="1024" rx="224" fill="#0B0B0D"/>
  <path d="M456 200 L568 200 L951.9 1040 L72.1 1040 Z" fill="#F4F4F6" stroke="#F4F4F6" stroke-width="28" stroke-linejoin="round"/>
  <path d="M88.6 1037.5 L935.4 1037.5 L886.9 927.5 L137.1 927.5 Z" fill="#0B0B0D"/>
  <path d="M555.9 1037.5 L661.2 1037.5 L644.1 927.5 L550.8 927.5 Z M362.8 1037.5 L468.1 1037.5 L473.2 927.5 L379.9 927.5 Z M722.6 1037.5 L827.9 1037.5 L791.7 927.5 L698.5 927.5 Z M196.1 1037.5 L301.4 1037.5 L325.5 927.5 L232.3 927.5 Z" fill="#F4F4F6"/>
  <path d="M482.8 877.5 L541.2 877.5 L530.9 593.6 L493.1 593.6 Z M496.6 498.6 L527.4 498.6 L523.9 404.0 L500.1 404.0 Z M501.6 363.2 L522.4 363.2 L520.7 316.3 L503.3 316.3 Z" fill="#FFB020" stroke="#FFB020" stroke-width="8" stroke-linejoin="round"/>
</svg>
